HIERARCHY
ROOT Hips
{
  OFFSET 0 0 0
  CHANNELS 6 Xposition Yposition Zposition Zrotation Yrotation Xrotation
  JOINT LeftThigh
  {
    OFFSET 8.409438 0 -5.917753
    CHANNELS 3 Zrotation Yrotation Xrotation
    JOINT LeftLeg
    {
      OFFSET 0 0 -42.358652
      CHANNELS 3 Zrotation Yrotation Xrotation
      JOINT LeftFoot
      {
        OFFSET 0 0 -39.357303
        CHANNELS 3 Zrotation Yrotation Xrotation
      }
    }
  }
  JOINT RightThigh
  {
    OFFSET -8.409438 0 -5.917753
    CHANNELS 3 Zrotation Yrotation Xrotation
    JOINT RightLeg
    {
      OFFSET 0 0 -42.358652
      CHANNELS 3 Zrotation Yrotation Xrotation
      JOINT RightFoot
      {
        OFFSET 0 0 -39.357303
        CHANNELS 3 Zrotation Yrotation Xrotation
      }
    }
  }
  JOINT SpineLow
  {
    OFFSET 0 0 4.719101
    CHANNELS 3 Zrotation Yrotation Xrotation
    JOINT SpineMid
    {
      OFFSET 0 0 12.899191
      CHANNELS 3 Zrotation Yrotation Xrotation
      JOINT Chest
      {
        OFFSET 0 0 12.899191
        CHANNELS 3 Zrotation Yrotation Xrotation
        JOINT LeftShoulder
        {
          OFFSET 7.550562 1.41573 9.438202
          CHANNELS 3 Zrotation Yrotation Xrotation
          JOINT LeftArm
          {
            OFFSET 9.155056 0 4.247191
            CHANNELS 3 Zrotation Yrotation Xrotation
            JOINT LeftForearm
            {
              OFFSET 0 0 25.771955
              CHANNELS 3 Zrotation Yrotation Xrotation
              JOINT LeftHand
              {
                OFFSET 0 0 25.197169
                CHANNELS 3 Zrotation Yrotation Xrotation
              }
            }
          }
        }
        JOINT RightShoulder
        {
          OFFSET -7.550562 1.41573 9.438202
          CHANNELS 3 Zrotation Yrotation Xrotation
          JOINT RightArm
          {
            OFFSET -9.155056 0 4.247191
            CHANNELS 3 Zrotation Yrotation Xrotation
            JOINT RightForearm
            {
              OFFSET 0 0 -25.771955
              CHANNELS 3 Zrotation Yrotation Xrotation
              JOINT RightHand
              {
                OFFSET 0 0 -25.197169
                CHANNELS 3 Zrotation Yrotation Xrotation
              }
            }
          }
        }
        JOINT Neck
        {
          OFFSET 0 0 15.101124
          CHANNELS 3 Zrotation Yrotation Xrotation
          JOINT Head
          {
            OFFSET 0 0 11.325843
            CHANNELS 3 Zrotation Yrotation Xrotation
            End Site
            {
              OFFSET 0 0 14.157303
            }
          }
        }
      }
    }
  }
}
MOTION
Frames: 5
Frame Time: 0.0
0.0  93.25843  0.0  -4.011722  3.87967  -93.197554  5.468411  -17.50478  1.022616  -6.2233  1.089975  10.669116  6.318522  1.691499  2.336962  -14.216622  4.209515  -2.995389  -6.494345  7.636065  8.754466  0.938916  1.225957  -0.399423  1.151782  0.286752  -0.693929  3.139903  0.81657  -1.882724  3.139903  0.81657  -1.882724  -34.744445  17.014864  18.969569  -152.845228  38.111422  -88.098273  -20.635541  13.675798  86.906054  50.970735  -13.670527  19.275739  2.183322  -23.211947  20.123042  112.895231  64.821467  48.359553  -23.625337  -33.172932  -111.046083  52.701309  -9.471646  -9.322209  -8.62868  -2.110299  10.331621  -6.43728  -1.729601  7.719873  
0.0  93.25843  0.0  -4.065979  5.563662  -93.229096  4.865576  -17.66005  0.537973  -6.855174  1.36874  11.031213  6.355432  1.64648  2.276229  -14.560301  4.363345  -2.836951  -7.123162  7.667628  8.967331  0.854662  1.216977  -0.341554  0.973899  0.288722  -0.725343  2.653247  0.81817  -1.97075  2.653247  0.818169  -1.97075  -34.805696  17.256439  19.1171  -152.978948  38.183641  -88.139118  -20.413873  13.485997  87.060736  51.143229  -13.672813  19.22994  1.933022  -22.885907  20.159104  112.825696  64.593021  48.20626  -23.48707  -33.313667  -111.630332  52.64532  -9.428454  -8.983438  -9.024329  -2.115632  10.412242  -6.733749  -1.741537  7.779071  
0.0  93.25843  0.0  -4.117674  7.251288  -93.197962  4.106853  -17.815454  -0.233047  -7.032014  1.659664  11.818382  6.366835  1.602231  2.203688  -14.812936  4.451335  -2.789729  -7.731835  7.702769  9.251076  0.54677  1.105587  -0.307516  0.784205  0.286433  -0.765855  2.134327  0.807582  -2.083944  2.134327  0.807582  -2.083944  -35.149071  17.567293  19.162927  -152.757184  38.075631  -88.214132  -20.383552  12.368428  86.836182  50.236072  -13.802362  19.539479  1.84704  -22.680791  20.239191  112.839305  64.344109  48.323547  -23.208403  -33.476534  -112.335505  52.628471  -9.357127  -8.601039  -9.369577  -2.063952  10.461953  -6.993523  -1.709445  7.816158  
0.0  93.25843  0.0  -4.248019  8.689214  -93.192653  4.230152  -17.983599  -0.885511  -7.830378  1.863329  12.284757  6.377518  1.579005  2.127293  -14.476782  4.386075  -2.767563  -8.247283  7.800407  9.732349  0.369706  1.094435  -0.248549  0.638499  0.250419  -0.797261  1.736861  0.705401  -2.172524  1.736861  0.705401  -2.172523  -35.238461  17.98841  19.199888  -152.775976  38.032026  -88.217701  -20.03211  11.933249  87.235643  50.38353  -13.756942  19.041452  1.406167  -22.280445  20.311287  112.93501  64.016757  48.273278  -22.78632  -33.573598  -113.112442  52.497728  -9.378772  -8.20814  -9.7514  -1.930713  10.45119  -7.282371  -1.615865  7.809211  
0.0  93.25843  0.0  -4.168187  10.560435  -92.951299  4.121804  -17.747885  -1.830844  -8.926292  1.968597  12.73609  6.573256  1.55809  2.225088  -14.655665  4.350782  -3.162148  -9.474647  7.879975  10.187914  0.919412  1.277052  -0.081472  0.397061  0.248366  -0.85598  1.076416  0.692816  -2.335663  1.076416  0.692816  -2.335662  -35.516136  18.401705  19.124915  -152.40546  37.716414  -88.33511  -19.582897  11.057718  87.703144  50.434877  -13.704581  18.358024  1.26993  -22.047881  20.22191  112.771667  63.537969  48.190167  -22.187049  -33.586231  -113.905354  52.266295  -9.352484  -8.013916  -10.094193  -1.715078  10.397166  -7.5435  -1.459041  7.771489  
